<svg width="128" height="128" viewBox="0 0 128 128" fill="none" xmlns="http://www.w3.org/2000/svg">
<path d="M6.66667 63.0299V49.4547C6.66667 41.3666 6.66043 34.9509 7.25944 29.86C7.86952 24.6753 9.1513 20.3788 12.0573 16.7253C13.5938 14.7935 15.4098 13.0866 17.446 11.652C21.2605 8.96447 25.7197 7.78556 31.1423 7.22038C36.501 6.66187 43.2682 6.66666 51.8786 6.66667C54.0877 6.66667 55.8786 8.45753 55.8786 10.6667C55.8786 12.8758 54.0877 14.6667 51.8786 14.6667C43.0962 14.6667 36.8189 14.6722 31.9714 15.1774C27.1875 15.676 24.2783 16.6245 22.0534 18.1921C20.6289 19.1957 19.3722 20.3804 18.318 21.7057C16.7032 23.7362 15.7249 26.3747 15.2048 30.7956C14.6735 35.3107 14.6667 41.1731 14.6667 49.4547V63.0299C14.6667 70.9844 14.6685 76.7572 14.9704 81.3346C15.27 85.8764 15.8528 88.9649 16.8864 91.5729C20.4578 100.585 28.0519 107.784 37.7965 111.205C43.696 113.276 51.2341 113.334 68.3639 113.334C78.297 113.334 82.2369 113.276 85.2624 112.215L85.2633 112.214C90.3876 110.415 94.3368 106.646 96.1852 101.982C96.6829 100.726 96.9981 99.1606 97.1637 96.6501C97.3317 94.1039 97.3337 90.8713 97.3337 86.3034V82.6667C97.3337 80.4575 99.1245 78.6667 101.334 78.6667C103.543 78.6668 105.334 80.4576 105.334 82.6667V86.3034C105.334 90.7658 105.335 94.3059 105.146 97.1764C104.954 100.083 104.554 102.579 103.623 104.929C100.876 111.86 95.108 117.237 87.9128 119.762C83.2754 121.39 77.6205 121.334 68.3639 121.334C51.9111 121.334 42.6575 121.391 35.1462 118.754C23.3313 114.606 13.9188 105.8 9.44889 94.5202C7.98143 90.8172 7.31363 86.7985 6.98795 81.861C6.66466 76.9593 6.66667 70.8788 6.66667 63.0299Z" fill="#FF6A13"/>
<path d="M10.6667 64C10.6667 73.8181 18.626 81.7776 28.4444 81.7776C31.9953 81.7776 36.1815 81.1557 39.634 82.0805C42.7014 82.9024 45.0974 85.2987 45.9194 88.3659C46.8444 91.8187 46.2222 96.0048 46.2222 99.5557C46.2222 109.374 54.1819 117.333 64 117.333" stroke="#FF6A13" stroke-width="8" stroke-linecap="round" stroke-linejoin="round"/>
<path d="M113.333 37.667C113.333 25.1488 103.185 15.0002 90.667 15C78.1487 15 68 25.1487 68 37.667C68.0002 50.1852 78.1488 60.333 90.667 60.333C103.185 60.3328 113.333 50.1851 113.333 37.667ZM90.7148 44.333C92.9238 44.3331 94.7147 46.1241 94.7148 48.333C94.7148 50.5421 92.9239 52.3329 90.7148 52.333H90.667C88.4579 52.333 86.667 50.5421 86.667 48.333C86.6672 46.124 88.458 44.333 90.667 44.333H90.7148ZM86.667 37.667V27C86.667 24.7909 88.4579 23 90.667 23C92.876 23.0002 94.667 24.791 94.667 27V37.667C94.6668 39.8759 92.8759 41.6668 90.667 41.667C88.458 41.667 86.6672 39.876 86.667 37.667ZM121.333 37.667C121.333 54.6033 107.603 68.3328 90.667 68.333C73.7305 68.333 60.0002 54.6034 60 37.667C60 20.7304 73.7304 7 90.667 7C107.603 7.00018 121.333 20.7305 121.333 37.667Z" fill="#FF6A13"/>
</svg>
