<svg width="128" height="128" viewBox="0 0 128 128" fill="none" xmlns="http://www.w3.org/2000/svg">
<path d="M6.66667 65.1218V54.863C6.66667 53.7957 6.66168 52.6856 6.75651 51.7653C6.85442 50.8155 7.10311 49.474 8.04069 48.2497L8.04167 48.2477C9.06233 46.9163 10.5108 46.3268 11.3776 46.0124C12.34 45.6633 13.5805 45.332 14.9001 44.9762L15.2917 44.8659C23.4712 42.443 28.3715 34.0912 26.3053 26.1345V26.1335C25.9552 24.7842 25.6245 23.5254 25.4489 22.5065C25.2926 21.5993 25.0804 20.0299 25.7389 18.4733C26.342 17.048 27.3929 16.1675 28.1706 15.6139C28.9268 15.0757 29.8986 14.5292 30.8346 13.9977L40.0329 8.77507C40.9499 8.25453 41.9042 7.70663 42.7448 7.33757C43.615 6.9555 44.894 6.5141 46.4108 6.71843C48.0597 6.94055 49.282 7.88689 49.985 8.4782C50.7605 9.13047 51.6562 10.0296 52.6081 10.9792C58.8299 17.1857 69.1792 17.1853 75.4001 10.9792L76.1032 10.28C76.793 9.59621 77.4417 8.96822 78.0231 8.47918C78.7255 7.88835 79.9483 6.94061 81.5973 6.71843L81.8786 6.68816C83.2721 6.56966 84.447 6.98018 85.2634 7.33855C86.1041 7.70764 87.0583 8.25455 87.9753 8.77507L97.1735 13.9977H97.1745C98.1104 14.5292 99.0824 15.0757 99.8385 15.6139C100.616 16.1676 101.666 17.0489 102.269 18.4743C102.928 20.0309 102.716 21.5999 102.559 22.5075C102.384 23.5265 102.053 24.7853 101.703 26.1345V26.1354C99.6 34.23 104.7 42.7686 113.1 45.0339C114.428 45.3918 115.669 45.7257 116.636 46.0807C117.509 46.401 118.943 46.9963 119.957 48.318H119.958C120.636 49.2033 120.892 50.1763 121.007 50.6999C121.143 51.3177 121.214 51.9567 121.255 52.5221C121.336 53.6461 121.334 54.9539 121.334 56.0641C121.334 58.2731 119.543 60.064 117.334 60.0641C115.125 60.0641 113.334 58.2732 113.334 56.0641C113.334 55.0126 113.329 54.1216 113.291 53.3952C113.138 53.3482 112.971 53.2983 112.785 53.2448L111.017 52.7585C98.613 49.4133 90.6932 36.6972 93.9596 24.1237C94.2396 23.046 94.4324 22.2912 94.5583 21.7253C94.5359 21.7119 94.5134 21.6972 94.4899 21.6833L93.2243 20.9548L84.026 15.7321C83.5198 15.4447 83.1222 15.2191 82.777 15.0319C82.759 15.0221 82.7407 15.013 82.7233 15.0036C82.3205 15.3792 81.7953 15.8985 81.0495 16.6423C71.7056 25.964 56.3018 25.9638 46.9577 16.6423C46.2122 15.8986 45.6875 15.3791 45.2848 15.0036C45.2676 15.0129 45.2499 15.0222 45.2321 15.0319C44.887 15.2191 44.4893 15.4447 43.9831 15.7321L34.7848 20.9548C34.2693 21.2475 33.8631 21.4776 33.5182 21.6823C33.4949 21.6962 33.4721 21.71 33.4499 21.7233C33.5757 22.2895 33.7685 23.0448 34.0485 24.1237L34.194 24.7136C37.068 37.1023 29.1826 49.4113 16.9831 52.7009H16.9821C15.9423 52.9812 15.2142 53.1804 14.6764 53.3454C14.6759 53.3677 14.6749 53.3905 14.6745 53.4137C14.6668 53.8112 14.6667 54.2744 14.6667 54.863V65.1218C14.6667 65.7103 14.6668 66.1735 14.6745 66.571C14.6749 66.5939 14.6759 66.6164 14.6764 66.6384C15.2142 66.8034 15.942 67.0035 16.9821 67.2839H16.9811C29.7119 70.6262 37.2346 83.6732 34.0153 96.069L33.9967 96.1393L33.9762 96.2096C33.7045 97.1184 33.5448 97.8163 33.4509 98.3249C33.4558 98.3276 33.4605 98.3309 33.4655 98.3337L33.7887 98.5026L33.8776 98.5466L33.9635 98.5954L44.1091 104.313L44.1208 104.319C44.5919 104.586 44.9597 104.796 45.2858 104.977C45.3152 104.95 45.3468 104.924 45.3776 104.896C45.8005 104.507 46.2632 104.062 46.7926 103.554C47.3069 103.061 47.8737 102.52 48.445 102.001C50.0795 100.515 52.6093 100.635 54.0954 102.269C55.5814 103.904 55.4613 106.434 53.8268 107.92C53.3423 108.36 52.8442 108.835 52.3278 109.33C51.8266 109.81 51.2923 110.325 50.7946 110.783C50.3082 111.231 49.7607 111.714 49.2233 112.112C48.9532 112.312 48.616 112.544 48.236 112.748C47.8985 112.929 47.2793 113.226 46.486 113.333C44.9547 113.539 43.6815 113.088 42.8161 112.698C42.0097 112.335 41.0664 111.784 40.1813 111.282L30.0495 105.573C28.5617 104.811 27.3899 103.96 26.5729 102.939C25.6062 101.731 25.3122 100.51 25.3122 99.5202C25.3122 98.8378 25.3628 97.1316 26.276 94.0387C28.3728 85.9224 23.4128 77.2321 14.9303 75.0163L14.9157 75.0124L14.9001 75.0085C13.5805 74.6527 12.3392 74.3216 11.3766 73.9723C10.5093 73.6576 9.06115 73.0673 8.04069 71.735L8.04167 71.7341C7.10364 70.5096 6.85436 69.1678 6.75651 68.2184C6.66173 67.2983 6.66667 66.1888 6.66667 65.1218Z" fill="#FF6A13"/>
<path d="M79.3573 49.5989C75.1973 43.8389 68.9253 41.5989 63.8053 41.5989C54.2053 41.727 45.4375 49.6576 45.4375 59.9669C45.4375 65.6507 47.0375 69.7589 51.5175 74.2389" stroke="#FF6A13" stroke-width="8" stroke-linecap="round"/>
<path d="M113.333 90.667C113.333 78.1488 103.185 68.0002 90.667 68C78.1487 68 68 78.1487 68 90.667C68.0002 103.185 78.1488 113.333 90.667 113.333C103.185 113.333 113.333 103.185 113.333 90.667ZM90.7148 97.333C92.9238 97.3331 94.7147 99.1241 94.7148 101.333C94.7148 103.542 92.9239 105.333 90.7148 105.333H90.667C88.4579 105.333 86.667 103.542 86.667 101.333C86.6672 99.124 88.458 97.333 90.667 97.333H90.7148ZM86.667 90.667V80C86.667 77.7909 88.4579 76 90.667 76C92.876 76.0002 94.667 77.791 94.667 80V90.667C94.6668 92.8759 92.8759 94.6668 90.667 94.667C88.458 94.667 86.6672 92.876 86.667 90.667ZM121.333 90.667C121.333 107.603 107.603 121.333 90.667 121.333C73.7305 121.333 60.0002 107.603 60 90.667C60 73.7304 73.7304 60 90.667 60C107.603 60.0002 121.333 73.7305 121.333 90.667Z" fill="#FF6A13"/>
</svg>
